<?xml version="1.0" standalone="no"?>
<!DOCTYPE svg PUBLIC "-//W3C//DTD SVG 20010904//EN"
 "http://www.w3.org/TR/2001/REC-SVG-20010904/DTD/svg10.dtd">
<svg version="1.0" xmlns="http://www.w3.org/2000/svg"
 width="512.000000pt" height="512.000000pt" viewBox="0 0 512.000000 512.000000"
 preserveAspectRatio="xMidYMid meet">
<metadata>
Created by potrace 1.14, written by Peter Selinger 2001-2017
</metadata>
<g transform="translate(0.000000,512.000000) scale(0.100000,-0.100000)"
fill="#000000" stroke="none">
<path d="M1186 5104 c-8 -21 -8 -21 9 -21 8 0 22 9 32 19 15 17 15 18 -9 18
-14 0 -29 -7 -32 -16z"/>
<path d="M1266 5111 c-11 -18 6 -43 26 -38 12 3 26 -2 36 -13 11 -14 24 -18
41 -14 15 3 22 2 16 -3 -5 -4 -10 -17 -10 -28 0 -15 7 -19 30 -20 20 0 30 -5
30 -15 0 -22 15 -30 56 -30 40 0 60 -25 58 -70 -3 -43 1 -61 10 -56 5 4 11 1
13 -5 2 -7 24 -19 48 -28 33 -12 45 -23 51 -44 11 -40 28 -57 55 -57 14 0 24
-6 24 -14 0 -7 7 -19 15 -26 22 -18 19 -35 -15 -72 -70 -76 -77 -95 -115 -293
-64 -338 -67 -370 -38 -511 24 -113 16 -133 -57 -151 -30 -8 -69 -20 -87 -28
-17 -8 -36 -15 -43 -15 -7 0 -25 -9 -41 -21 -33 -24 -38 -56 -13 -99 19 -32
13 -60 -14 -60 -26 0 -124 36 -218 80 -88 42 -172 66 -185 53 -4 -4 -14 -30
-21 -58 -13 -53 -26 -69 -43 -55 -5 4 -46 15 -90 23 -44 7 -87 17 -96 21 -24
10 -13 -40 18 -80 12 -17 23 -33 23 -36 0 -3 18 -36 40 -72 22 -36 40 -70 40
-76 0 -6 9 -28 20 -50 24 -48 27 -68 6 -51 -8 7 -18 26 -21 42 -4 16 -11 31
-16 34 -8 6 -89 123 -116 169 -7 11 -36 45 -65 76 -40 41 -66 59 -103 69 l-48
14 -24 -29 c-12 -16 -23 -34 -23 -39 0 -6 -9 -18 -20 -28 -24 -20 -25 -48 -8
-257 6 -80 11 -197 12 -260 1 -115 15 -179 53 -235 18 -27 16 -52 -11 -136
-31 -94 -46 -129 -66 -154 -29 -35 -51 -105 -39 -126 8 -15 6 -19 -8 -20 -10
-1 -21 -1 -26 0 -4 1 -5 -10 -1 -23 7 -29 -4 -33 -79 -32 -48 1 -57 -2 -57
-16 0 -12 -5 -15 -15 -11 -14 5 -14 8 1 24 10 12 14 23 8 27 -35 30 -84 60
-113 70 -41 15 -44 15 -36 2 3 -5 1 -10 -4 -10 -8 0 -11 -340 -11 -1125 l0
-1125 1218 0 1217 1 20 27 c17 23 20 43 21 147 0 66 6 157 12 201 10 69 10 87
-3 118 -20 48 -19 93 3 105 14 9 15 12 3 20 -17 11 -9 62 15 98 13 20 22 23
62 21 47 -2 82 -21 82 -43 0 -17 -76 -85 -95 -85 -8 0 -15 -7 -15 -15 0 -16
20 -20 36 -6 5 4 30 16 56 26 45 17 48 16 87 -1 51 -24 69 -61 51 -104 -11
-27 -10 -34 13 -68 35 -52 86 -172 96 -229 12 -62 27 -99 51 -131 11 -13 20
-38 20 -53 l0 -29 135 0 c83 0 135 4 135 10 0 6 -15 10 -34 10 -25 0 -39 7
-50 22 -18 25 -21 93 -6 103 39 24 -58 176 -227 357 -29 31 -53 62 -53 68 0 6
-4 8 -10 5 -15 -9 -70 27 -70 46 0 31 79 78 133 79 32 0 69 -50 66 -91 -3 -39
11 -60 171 -247 38 -46 81 -105 94 -131 14 -26 41 -70 62 -97 29 -38 37 -58
38 -92 1 -37 4 -42 21 -40 42 6 43 74 2 168 -10 24 -97 179 -143 256 -28 47
-74 94 -103 105 -21 9 -23 14 -18 54 6 42 -3 59 -18 35 -14 -22 -54 -10 -70
20 -20 38 -7 66 40 86 47 19 78 18 108 -6 21 -17 27 -32 33 -83 6 -58 10 -65
53 -102 92 -81 127 -122 176 -210 l50 -89 60 -16 c33 -8 66 -19 72 -23 15 -9
29 -61 38 -140 l6 -57 50 0 c46 0 49 2 49 25 0 14 -7 42 -15 62 -16 39 -19 81
-7 101 15 23 70 2 109 -43 21 -24 58 -66 82 -94 l45 -51 183 0 c101 0 183 3
183 8 0 11 -110 124 -150 155 -24 18 -32 29 -24 37 7 7 22 1 50 -20 21 -16 49
-30 62 -30 33 0 61 -17 103 -60 20 -21 50 -41 68 -45 17 -4 36 -15 41 -26 9
-16 22 -19 97 -19 l86 0 -5 85 c-5 91 -17 117 -45 99 -12 -8 -26 -8 -46 0 -25
9 -31 8 -46 -10 -34 -42 -59 -37 -115 19 -28 29 -80 76 -114 106 -64 55 -74
78 -46 102 14 11 21 10 46 -4 16 -9 38 -17 48 -17 9 0 23 -6 29 -14 6 -8 24
-16 39 -19 55 -11 122 -40 122 -53 0 -18 17 -18 27 0 4 7 19 13 33 12 37 -2
35 38 -2 42 -15 2 -30 11 -33 21 -3 9 -41 54 -84 99 -93 94 -109 119 -86 128
9 4 24 -1 35 -11 19 -17 20 -16 31 9 9 18 20 26 38 26 32 0 42 -7 61 -44 8
-15 24 -32 35 -36 27 -10 33 -3 11 13 -15 11 -16 15 -2 41 8 16 12 34 9 41 -2
7 3 28 13 47 15 30 18 31 25 13 6 -16 8 -13 8 14 1 24 10 44 29 64 25 28 26
29 5 23 -13 -4 -62 -27 -110 -50 -89 -44 -177 -66 -266 -66 -70 0 -57 16 29
36 148 33 243 82 323 169 34 37 53 75 38 75 -2 0 -46 -23 -97 -51 -132 -71
-235 -100 -285 -79 -22 9 -23 8 55 35 71 25 134 65 121 78 -6 6 -54 14 -108
18 -99 7 -153 22 -153 44 0 19 77 24 207 14 64 -5 119 -6 122 -4 2 3 -4 12
-15 19 -18 14 -18 16 -3 31 13 13 21 15 35 7 12 -7 26 -6 43 1 28 12 101 83
101 98 0 12 62 99 72 99 13 0 29 -78 22 -107 -4 -15 -13 -35 -20 -43 -7 -8
-17 -27 -22 -41 -8 -20 -7 -28 8 -37 16 -10 18 -23 14 -134 -5 -124 -9 -161
-38 -298 -9 -41 -23 -160 -31 -265 -14 -188 -21 -249 -32 -312 l-5 -33 221 0
221 0 0 2560 0 2560 -1924 0 c-1145 0 -1927 -4 -1930 -9z m328 -247 c9 -3 16
-10 16 -16 0 -5 -4 -6 -10 -3 -5 3 -10 2 -10 -4 0 -6 -7 -8 -15 -5 -8 4 -15
12 -15 20 0 15 10 17 34 8z m1186 -55 c181 -28 337 -128 418 -269 14 -25 47
-71 73 -102 26 -31 50 -67 54 -80 11 -37 35 -87 45 -93 19 -12 48 -81 55 -132
10 -73 18 -78 115 -62 72 11 81 11 93 -4 6 -9 25 -21 40 -27 34 -12 31 -35 -4
-35 -13 0 -27 -4 -30 -9 -4 -4 -22 -9 -40 -11 -28 -2 -35 -7 -37 -29 -3 -24
-22 -38 -22 -16 0 6 -10 4 -22 -4 -13 -8 -35 -14 -50 -14 -26 0 -28 4 -28 39
0 45 -17 52 -25 12 -3 -16 -10 -44 -15 -64 -14 -50 -14 -49 20 -49 19 0 48
-14 82 -40 29 -22 58 -40 65 -40 17 0 43 -41 43 -67 0 -19 4 -22 23 -18 16 4
29 0 41 -14 21 -23 18 -26 -46 -35 -32 -4 -38 -2 -38 14 0 10 -4 21 -9 25 -5
3 -12 19 -16 35 -9 43 -25 37 -25 -9 0 -54 -15 -59 -36 -12 l-17 40 -48 -6
c-32 -4 -54 -1 -64 7 -12 10 -18 9 -30 -4 -35 -34 -85 -2 -70 45 4 13 -4 35
-25 67 -33 49 -33 49 -14 150 5 25 3 32 -9 32 -21 0 -58 -65 -45 -78 6 -6 14
-30 19 -54 15 -88 98 -248 129 -248 22 0 37 -29 46 -86 9 -62 9 -148 0 -163
-16 -25 -24 -8 -30 62 -4 39 -11 95 -17 123 -9 46 -15 54 -58 83 -27 17 -55
31 -62 31 -8 0 -20 9 -26 19 -7 10 -33 27 -60 37 -26 9 -55 23 -64 31 -8 7
-21 13 -27 13 -7 0 -21 5 -32 12 -24 15 -35 6 -22 -19 7 -13 6 -28 -3 -51 -17
-38 -32 -41 -41 -8 -3 13 -18 34 -32 47 l-27 23 45 11 c37 9 41 12 25 19 -22
8 -261 9 -310 1 -39 -7 -85 26 -67 47 6 8 9 18 5 22 -4 4 -8 15 -8 23 0 13
-15 17 -82 20 -46 2 -83 1 -83 -2 0 -14 21 -45 31 -45 13 0 29 -17 48 -50 12
-20 11 -25 -3 -36 -18 -13 -97 -25 -191 -29 -85 -3 -245 -25 -278 -37 -42 -16
-52 2 -22 42 14 19 25 39 25 46 0 7 29 39 65 71 36 32 65 62 65 67 0 5 -8 15
-17 22 -11 8 -13 13 -5 14 11 0 6 15 -16 50 -2 3 -24 5 -48 6 -52 2 -86 30
-88 73 -1 20 -7 27 -30 31 -34 6 -48 30 -17 30 12 0 21 5 21 10 0 6 -3 10 -7
10 -10 0 -43 58 -43 75 0 7 -7 18 -15 25 -21 17 -19 47 5 67 17 15 17 19 6 32
-24 28 -28 58 -10 75 9 10 15 18 13 19 -36 19 -43 25 -47 35 -2 7 7 16 20 21
12 6 17 10 11 10 -50 3 45 103 139 148 53 25 85 32 188 42 161 15 313 32 370
41 68 11 138 11 210 -1z m-965 -159 c-3 -5 -11 -10 -16 -10 -6 0 -7 5 -4 10 3
6 11 10 16 10 6 0 7 -4 4 -10z m1655 -546 c0 -8 -4 -12 -10 -9 -5 3 -10 10
-10 16 0 5 5 9 10 9 6 0 10 -7 10 -16z m289 -45 c-19 -12 -24 -2 -8 17 9 11
14 13 17 4 3 -7 -2 -16 -9 -21z m-1706 -29 c9 0 17 -5 17 -11 0 -15 -73 -6
-78 10 -4 10 1 12 19 8 13 -4 32 -7 42 -7z m997 -278 c0 -4 -6 -14 -12 -20
-10 -10 -10 -15 2 -22 8 -6 21 -7 29 -5 20 8 32 -15 20 -37 -13 -24 -34 -23
-59 2 -22 22 -26 60 -8 78 14 14 28 16 28 4z m-219 -33 c11 -5 17 -14 14 -20
-6 -9 -55 -13 -55 -5 0 2 -3 11 -6 20 -7 19 17 22 47 5z m392 -112 c24 -9 18
-42 -7 -42 -10 0 -23 7 -29 16 -11 18 0 60 11 43 4 -6 15 -13 25 -17z m492
-81 c4 -24 2 -67 -4 -96 -7 -34 -8 -57 -1 -70 12 -22 -14 -50 -31 -33 -15 15
-14 126 2 151 11 18 11 24 -3 39 -12 13 -14 23 -7 36 18 31 37 19 44 -27z
m-742 22 c12 -7 38 -25 58 -40 43 -33 59 -35 52 -8 -6 24 35 37 65 21 12 -6
30 -11 41 -11 25 0 26 -9 6 -36 -21 -28 -18 -48 12 -83 29 -32 69 -41 91 -19
26 26 22 -3 -4 -33 -86 -94 -143 -135 -127 -91 4 12 1 11 -14 -5 -26 -29 -60
-30 -68 -2 -4 11 -5 21 -3 22 1 1 13 8 25 14 12 7 29 10 38 7 25 -10 17 13
-12 36 -17 13 -37 20 -51 17 -30 -6 -40 12 -16 30 18 13 17 15 -16 43 -19 16
-44 38 -55 49 -11 10 -30 24 -42 30 -22 11 -31 49 -16 64 9 9 10 9 36 -5z
m-311 -93 c4 -16 5 -31 3 -34 -8 -7 -34 32 -35 52 0 28 23 15 32 -18z m130
-10 c14 -30 -3 -55 -38 -55 -36 0 -47 30 -21 56 29 29 45 29 59 -1z m468 15
c0 -5 9 -10 19 -10 16 0 18 -5 12 -27 -4 -16 -14 -29 -23 -31 -19 -4 -50 42
-42 62 7 18 34 22 34 6z m-675 -36 c9 -15 61 -70 114 -124 77 -77 105 -99 141
-109 25 -7 60 -27 77 -44 18 -17 36 -28 40 -24 3 4 1 7 -5 7 -7 0 -12 9 -12
21 0 20 3 21 84 14 122 -10 136 -5 236 91 56 54 93 82 102 79 15 -6 48 -66 48
-87 0 -12 -79 -115 -127 -166 -31 -32 -36 -34 -85 -28 -167 17 -196 22 -210
33 -18 15 -40 -4 -57 -50 -9 -24 -16 -27 -54 -27 -47 0 -70 -16 -113 -76 -22
-29 -22 -29 -52 -11 -16 9 -42 17 -56 17 -18 0 -29 7 -35 23 -5 13 -16 29 -25
36 -9 7 -16 22 -16 32 0 33 22 32 52 -5 16 -20 38 -36 49 -36 32 0 69 44 69
82 0 29 -30 94 -49 108 -15 10 -69 97 -84 133 -16 37 -32 47 -40 25 -3 -10 -7
-10 -20 1 -19 15 -49 8 -45 -11 5 -28 -28 -128 -43 -128 -12 0 1 91 16 116 7
11 19 46 26 77 11 48 17 57 35 57 12 0 29 -11 39 -26z m-777 -27 c2 -10 -3
-17 -11 -17 -16 0 -30 24 -19 34 10 10 27 1 30 -17z m574 -59 c-9 -9 -12 -7
-12 12 0 19 3 21 12 12 9 -9 9 -15 0 -24z m493 -25 c44 -9 97 -15 117 -15 35
-1 39 -3 48 -39 6 -22 15 -39 20 -39 6 0 10 -4 10 -10 0 -21 -159 -6 -233 22
-15 6 -41 28 -58 49 -31 39 -31 66 0 53 9 -4 52 -13 96 -21z m746 -47 c-7 -8
-12 -43 -12 -80 0 -36 -5 -66 -10 -66 -13 0 -16 14 -23 93 -5 63 -4 68 17 76
28 11 45 -3 28 -23z m123 18 c11 -10 14 -24 10 -40 -5 -19 0 -32 18 -52 14
-15 40 -56 59 -92 47 -92 92 -144 157 -182 31 -18 62 -35 67 -37 6 -2 26 -16
45 -31 56 -44 208 -132 300 -174 47 -21 107 -50 134 -63 28 -14 86 -36 130
-49 89 -27 116 -46 109 -75 -4 -13 3 -26 19 -38 37 -29 62 -133 73 -301 8
-122 -8 -229 -49 -320 -19 -41 -40 -90 -46 -108 -7 -18 -20 -38 -30 -45 -19
-14 -71 -89 -66 -95 4 -4 38 22 67 52 11 11 19 28 19 38 0 11 5 15 14 12 11
-4 16 6 21 41 10 65 29 51 33 -24 3 -70 -12 -104 -54 -123 -15 -7 -24 -19 -24
-35 0 -12 -3 -23 -7 -24 -5 0 -17 -2 -29 -3 -12 -1 -43 -21 -70 -43 -65 -53
-290 -133 -312 -111 -17 17 7 55 39 62 22 4 29 11 29 30 0 16 5 23 17 22 10 0
19 8 21 19 2 11 11 28 20 38 13 15 14 24 5 47 -6 17 -9 56 -6 88 4 45 2 60
-11 71 -9 7 -16 24 -16 38 0 41 -17 61 -59 68 -21 3 -49 16 -61 27 -21 20 -21
20 -2 42 18 19 61 114 99 219 7 22 22 56 33 78 11 21 20 49 20 61 0 25 54 89
110 129 30 22 90 49 165 74 19 6 19 7 2 16 -20 12 -106 -10 -171 -43 -33 -17
-43 -18 -65 -8 -38 18 -141 38 -164 32 -10 -3 -22 -1 -26 4 -3 5 -19 18 -36
28 -16 10 -43 34 -58 52 -32 38 -47 43 -47 16 0 -10 -3 -21 -6 -25 -9 -9 -108
38 -191 89 -106 66 -130 98 -164 214 -7 25 -16 50 -19 55 -17 26 -60 149 -64
183 -2 20 -11 64 -20 97 -22 84 -21 115 3 115 11 0 27 -7 35 -16z m-1153 -138
c5 -6 9 -26 9 -45 -1 -31 -2 -34 -12 -17 -19 33 -28 89 -20 131 l7 40 3 -50
c2 -27 7 -54 13 -59z m1073 61 c6 -9 7 -19 3 -23 -9 -9 -37 15 -37 33 0 18 20
12 34 -10z m-1504 -38 c0 -5 -4 -9 -10 -9 -5 0 -10 7 -10 16 0 8 5 12 10 9 6
-3 10 -10 10 -16z m170 -102 c0 -13 -14 -42 -31 -65 -25 -35 -36 -42 -64 -42
-42 0 -65 9 -65 24 0 27 105 104 143 105 11 1 17 -6 17 -22z m1360 -9 c0 -43
-13 -64 -27 -46 -14 18 -24 63 -16 72 3 3 15 6 25 6 14 0 18 -8 18 -32z m-288
-23 c133 -110 165 -289 112 -628 -4 -22 -15 -43 -25 -50 -11 -7 -19 -16 -19
-22 -1 -18 -99 -117 -110 -110 -6 3 -10 45 -10 98 0 79 -12 194 -39 385 -9 60
-24 57 -34 -8 -32 -234 -50 -299 -107 -385 -25 -38 -59 -92 -75 -120 -42 -73
-109 -140 -163 -163 -43 -18 -58 -19 -177 -10 -129 10 -175 19 -175 37 0 5 13
14 29 19 16 6 32 19 35 30 4 10 18 24 31 30 14 6 25 17 25 24 0 7 7 26 15 41
12 24 13 31 1 50 -8 12 -20 41 -27 64 -8 30 -18 43 -33 45 -29 4 -34 44 -6 51
19 5 20 8 10 27 -11 20 -13 21 -30 5 -17 -15 -20 -14 -54 20 -44 43 -47 72 -9
81 21 6 31 2 50 -21 l24 -28 -7 39 c-4 22 -13 43 -20 47 -8 4 -14 17 -14 28 0
11 -4 17 -10 14 -5 -3 -10 -15 -10 -26 0 -24 -9 -24 -26 -1 -8 9 -14 43 -14
76 0 57 1 58 25 54 14 -3 28 -1 31 3 3 5 14 9 25 9 27 0 52 -61 47 -114 -3
-30 1 -45 18 -63 19 -21 22 -21 28 -7 4 9 0 24 -7 33 -32 37 -28 123 6 129 16
3 87 -61 87 -78 0 -4 -7 -10 -15 -14 -16 -6 -20 -43 -7 -62 4 -6 15 -13 25
-17 22 -8 22 -28 -1 -34 -16 -4 -17 -12 -7 -106 11 -102 44 -194 81 -223 26
-21 61 -5 79 37 19 41 33 47 64 27 24 -15 39 -4 83 61 39 59 56 109 48 141 -6
22 -8 20 -11 -15 -5 -53 -34 -61 -44 -13 -3 18 -11 43 -17 55 -14 29 -4 40 17
19 24 -23 45 -20 45 7 0 13 16 60 35 104 38 89 53 143 38 143 -5 0 -10 29 -11
65 0 36 4 65 9 65 6 0 7 15 3 35 -5 27 -3 35 9 35 8 0 18 11 21 25 4 14 17 30
30 36 12 6 30 24 40 40 9 16 21 29 25 29 5 0 33 -20 63 -45z m-946 7 c7 -18
26 -36 52 -49 41 -20 41 -20 17 -31 -43 -20 -86 6 -99 61 -12 50 13 65 30 19z
m519 -137 c30 -31 35 -42 35 -84 0 -52 -16 -111 -31 -111 -5 0 -9 20 -9 45 0
48 -22 113 -52 158 -19 27 -19 27 1 27 11 0 36 -16 56 -35z m773 -5 c22 -21
30 -74 13 -84 -12 -8 -74 73 -67 90 8 20 28 18 54 -6z m-113 -68 c-2 -84 -11
-115 -26 -91 -20 33 -3 169 21 169 4 0 6 -35 5 -78z m-1245 18 c40 -33 27 -39
-37 -16 -22 8 -52 12 -67 9 -28 -6 -56 -37 -56 -64 0 -32 41 -108 86 -161 38
-45 74 -101 74 -115 0 -3 -22 19 -49 49 -27 29 -66 71 -86 93 -70 76 -89 138
-60 195 18 35 26 38 100 39 53 1 65 -3 95 -29z m162 -45 c3 -45 1 -50 -19 -53
-19 -3 -23 2 -25 25 -2 45 3 77 15 91 15 19 25 -1 29 -63z m353 44 c9 -17 15
-42 13 -57 l-3 -27 -88 1 c-123 2 -193 34 -155 72 17 17 46 15 82 -7 l31 -20
40 34 c22 19 46 34 52 35 7 0 20 -14 28 -31z m-809 -60 c3 -6 -5 -23 -18 -37
-57 -62 -44 -117 45 -194 34 -29 73 -61 87 -69 14 -9 48 -37 75 -62 l50 -45 0
-91 c0 -75 -3 -91 -15 -89 -25 5 -35 53 -22 105 15 56 23 46 -142 178 -128
102 -156 137 -156 195 0 67 71 148 96 109z m217 -13 c27 -21 22 -39 -10 -31
-34 8 -47 20 -39 34 9 15 27 13 49 -3z m187 -16 c0 -12 -28 -25 -36 -17 -9 9
6 27 22 27 8 0 14 -5 14 -10z m419 -47 c-2 -44 -13 -87 -23 -87 -5 -1 -10 25
-12 57 -3 51 -1 57 16 57 15 0 20 -6 19 -27z m789 -58 c2 -56 -9 -97 -23 -84
-9 10 -26 129 -19 140 3 6 13 9 22 7 13 -2 18 -17 20 -63z m247 -44 c11 -9 40
-30 65 -46 25 -15 58 -37 74 -48 15 -11 40 -23 55 -26 23 -7 26 -13 28 -51 1
-24 -3 -54 -8 -68 -7 -18 -6 -29 6 -42 19 -21 19 -25 -1 -44 -20 -20 -54 -21
-54 -1 0 9 -9 15 -22 15 -13 0 -42 17 -66 38 -40 34 -57 70 -65 133 -1 9 -21
36 -45 59 -43 43 -60 79 -47 100 9 15 53 4 80 -19z m-2545 -42 c0 -5 -4 -9
-10 -9 -5 0 -10 7 -10 16 0 8 5 12 10 9 6 -3 10 -10 10 -16z m1600 -89 c0 -11
-4 -20 -9 -20 -13 0 -32 26 -24 33 13 14 33 6 33 -13z m1396 -41 c3 -5 20 -9
39 -9 50 0 52 -25 5 -55 -22 -14 -49 -38 -61 -55 -28 -36 -39 -38 -39 -5 0 13
-9 40 -20 60 -19 34 -26 66 -16 76 8 8 86 -3 92 -12z m-643 -6 c20 -23 24 -54
13 -133 -10 -77 -24 -59 -25 31 -1 49 -4 57 -26 69 -24 13 -32 30 -18 43 12
13 40 7 56 -10z m-115 -11 c2 -7 -6 -12 -17 -12 -21 0 -27 11 -14 24 9 9 26 2
31 -12z m-705 -49 c31 -41 34 -73 11 -108 -23 -35 -37 -31 -30 8 4 20 0 43 -9
61 -16 30 -20 76 -7 76 4 -1 19 -17 35 -37z m-488 -59 c0 -40 6 -69 18 -86 20
-32 21 -38 6 -38 -19 0 -70 42 -79 65 -10 25 7 106 24 117 23 15 31 -1 31 -58z
m1172 -16 c-3 -8 -6 -5 -6 6 -1 11 2 17 5 13 3 -3 4 -12 1 -19z m-437 -99 c-6
-30 -15 -67 -20 -84 -5 -16 -16 -70 -25 -120 -18 -95 -56 -240 -123 -465 -77
-255 -104 -325 -116 -289 -26 81 -57 189 -71 252 -15 66 -22 81 -56 112 -21
19 -46 35 -55 35 -31 0 -7 22 66 62 131 71 254 233 316 416 38 112 68 162 85
145 6 -6 5 -31 -1 -64z m-2932 -97 c9 -6 6 -12 -13 -20 -21 -10 -26 -9 -35 8
-9 17 -8 20 12 20 13 0 29 -4 36 -8z m-88 -27 c0 -8 -4 -15 -10 -15 -5 0 -10
7 -10 15 0 8 5 15 10 15 6 0 10 -7 10 -15z m0 -84 c0 -11 -26 -22 -34 -14 -12
12 -5 23 14 23 11 0 20 -4 20 -9z m651 -44 c21 -41 92 -107 115 -107 35 0 39
-19 10 -49 -14 -15 -26 -32 -26 -38 0 -7 -10 -15 -21 -18 -17 -6 -31 3 -70 44
-27 29 -49 56 -49 61 0 5 -10 12 -22 16 -32 9 -38 22 -38 76 0 34 5 50 17 57
22 12 68 -11 84 -42z m-721 -17 c0 -5 -11 -10 -25 -10 -15 0 -25 -6 -25 -14 0
-8 -4 -18 -10 -21 -6 -4 -10 7 -10 24 0 29 3 31 35 31 19 0 35 -4 35 -10z
m924 -167 c13 -25 147 -157 246 -242 31 -26 34 -32 23 -50 -16 -25 -17 -57 -3
-66 6 -3 10 1 10 9 0 17 35 31 65 27 34 -5 85 -41 91 -65 4 -18 11 -21 38 -18
19 2 37 -1 40 -7 4 -6 14 -11 23 -11 8 0 35 -14 60 -30 43 -29 189 -103 266
-134 20 -8 37 -22 37 -30 0 -20 -9 -20 -74 -1 -28 8 -122 19 -208 23 -87 4
-160 11 -164 14 -3 4 -4 15 0 24 5 14 16 16 71 11 35 -3 67 -2 70 2 6 11 -82
43 -117 43 -20 -1 -27 4 -30 21 -4 27 -30 33 -51 12 -9 -8 -20 -15 -26 -15
-18 0 -13 -11 14 -32 32 -25 32 -46 1 -54 -66 -16 -102 17 -73 67 13 24 15 35
6 45 -16 20 -37 17 -49 -6 -14 -26 -61 -26 -114 -1 -26 13 -78 23 -141 29
-107 9 -293 -2 -309 -18 -26 -26 -86 11 -86 54 0 14 -5 26 -11 26 -7 0 -9 -11
-6 -27 14 -69 15 -66 -29 -68 -24 0 -65 -14 -102 -33 -34 -18 -75 -32 -92 -32
-34 0 -70 -30 -70 -60 0 -29 50 -26 100 5 22 14 42 25 46 25 3 0 22 13 41 30
41 36 47 37 78 5 31 -30 34 -84 6 -109 -16 -15 -22 -15 -40 -5 -16 11 -32 10
-93 -5 -40 -11 -93 -29 -117 -41 l-44 -22 31 -34 c29 -32 31 -33 49 -16 24 21
52 22 59 2 4 -8 14 -15 23 -15 40 0 123 33 145 57 16 17 31 24 45 20 11 -2 28
1 38 9 22 16 55 18 70 3 11 -11 47 -4 168 31 39 12 98 26 160 40 41 9 59 8 94
-5 24 -8 54 -15 67 -15 13 0 29 -6 36 -14 11 -11 17 -12 38 -1 34 18 173 26
235 14 28 -5 100 -14 160 -19 61 -6 160 -15 220 -20 61 -6 144 -12 185 -14 41
-2 86 -8 99 -13 22 -9 18 -12 -42 -41 -55 -26 -71 -40 -101 -87 -20 -30 -36
-58 -36 -61 0 -5 -50 -115 -55 -122 -7 -9 -55 20 -55 33 0 18 -17 20 -22 3 -2
-6 -15 0 -31 15 -14 15 -35 27 -45 27 -11 0 -25 7 -32 15 -9 11 -26 13 -71 8
-44 -4 -59 -3 -59 7 0 9 -11 11 -39 6 -23 -3 -42 -2 -46 4 -9 15 -36 12 -57
-7 -17 -15 -18 -15 -18 3 0 50 -51 59 -65 12 -7 -23 -16 -33 -30 -33 -15 0
-25 14 -43 65 -36 100 -84 130 -148 91 -26 -16 -33 -16 -48 -5 -15 11 -22 10
-43 -3 -23 -15 -25 -15 -59 18 -27 26 -34 40 -31 62 4 32 -10 35 -44 8 -13
-10 -67 -31 -119 -46 -52 -15 -105 -32 -116 -37 -13 -6 -40 -7 -65 -3 -39 7
-42 6 -30 -9 7 -9 10 -17 5 -17 -5 -1 -22 -3 -39 -4 -40 -4 -176 -44 -192 -57
-20 -16 -63 0 -73 27 -5 14 -14 25 -20 25 -13 0 -13 -27 0 -35 15 -9 12 -35
-4 -35 -7 0 -19 6 -25 14 -7 8 -30 17 -52 21 -29 5 -39 12 -39 25 0 27 -20 36
-27 11 -7 -26 -11 -26 -40 1 -17 16 -23 32 -23 64 0 60 8 75 35 68 16 -4 30 2
49 21 33 33 29 41 -11 19 -16 -10 -37 -15 -46 -11 -18 7 -23 52 -7 62 6 3 10
15 10 26 0 11 -4 17 -10 14 -5 -3 -10 1 -10 9 0 9 7 16 15 16 8 0 31 22 51 50
20 28 42 50 49 50 7 0 20 3 29 6 13 5 16 -1 16 -25 0 -18 5 -31 13 -31 7 0 57
16 112 35 69 24 103 41 109 55 6 14 19 20 41 20 49 0 74 30 68 80 -6 46 11 90
36 90 9 0 36 -8 61 -17 25 -9 88 -19 140 -23 52 -4 132 -17 178 -30 58 -16 87
-19 94 -12 7 7 0 15 -23 27 -19 10 -66 50 -105 91 -59 61 -76 73 -100 71 -46
-3 -44 33 3 72 46 38 58 39 77 4z m1441 -53 c16 -18 16 -20 1 -26 -16 -6 -56
20 -56 38 0 16 37 8 55 -12z m150 -51 c68 -23 77 -39 21 -39 -44 0 -106 26
-106 45 0 20 7 19 85 -6z m-2233 -95 c90 -20 171 -19 209 3 43 26 54 8 39 -59
-20 -84 -19 -82 -34 -69 -11 9 -25 9 -59 1 -25 -7 -95 -10 -161 -8 -106 3
-116 1 -116 -15 0 -10 -7 -20 -15 -24 -9 -3 -29 -25 -46 -49 -16 -24 -35 -44
-40 -44 -14 0 -9 145 6 190 9 28 22 40 66 62 65 32 60 32 151 12z m4438 -36
c0 -16 -50 -95 -89 -139 -19 -22 -55 -50 -80 -63 -25 -12 -104 -52 -176 -89
-125 -63 -205 -93 -205 -78 0 16 69 72 125 101 76 40 192 107 242 141 40 28
156 128 161 142 5 10 22 -2 22 -15z m-2146 -133 c14 -16 44 -52 68 -79 65 -73
90 -123 95 -191 4 -54 2 -63 -21 -87 -14 -15 -26 -30 -26 -33 0 -3 16 -5 36
-5 88 0 204 -63 204 -111 0 -23 -4 -24 -41 -2 -28 17 -30 16 -84 -10 -71 -35
-122 -36 -134 -3 -11 27 -45 40 -60 22 -7 -8 1 -19 25 -35 53 -36 45 -55 -28
-69 -45 -8 -65 -8 -75 -1 -21 18 -15 33 17 52 36 22 39 37 5 37 -16 0 -32 -11
-47 -30 -14 -19 -31 -30 -46 -30 -14 0 -30 -8 -37 -17 -10 -13 -29 -17 -83
-17 -60 -1 -75 2 -92 20 -21 20 -21 22 -4 56 19 40 49 58 98 58 39 0 50 8 35
27 -7 8 -32 13 -61 13 -45 0 -54 -4 -88 -37 -39 -40 -59 -91 -85 -216 -15 -73
-33 -107 -46 -86 -5 9 -14 8 -34 -5 -24 -16 -32 -16 -72 -4 -53 15 -68 37 -59
87 3 20 9 52 12 71 3 19 14 54 25 77 10 24 19 47 19 51 0 15 93 102 110 102 8
0 26 7 38 16 12 8 30 13 40 10 9 -3 61 -12 116 -20 56 -9 105 -21 115 -30 21
-19 56 -20 100 -5 36 13 36 12 17 42 -18 28 -106 292 -106 317 0 23 64 126 82
133 7 3 21 -5 30 -17 9 -11 28 -34 42 -51z m2126 -13 c0 -20 -14 -45 -42 -78
-64 -73 -161 -164 -176 -164 -7 0 -51 -18 -97 -39 -82 -39 -155 -64 -163 -56
-10 9 21 33 211 159 135 90 210 147 226 171 29 42 41 45 41 7z m-4023 -113
c14 -5 129 -10 256 -10 128 -1 240 -5 250 -11 13 -7 17 -19 15 -41 -3 -29 -6
-32 -41 -35 -21 -2 -44 1 -51 7 -8 7 -60 7 -161 0 -83 -6 -186 -12 -231 -13
-65 -2 -86 -7 -111 -25 -39 -30 -57 -20 -50 27 4 21 1 45 -8 63 -8 15 -15 32
-15 38 0 12 114 13 147 0z m-99 -421 c-6 -16 -56 -53 -63 -46 -9 8 35 58 52
58 8 0 13 -5 11 -12z m2322 -5 c56 -38 54 -65 -7 -91 -45 -19 -49 -19 -92 -3
-55 20 -63 44 -25 74 52 41 86 47 124 20z m-192 -86 c12 -13 10 -20 -12 -56
-22 -34 -31 -41 -59 -41 -41 0 -77 31 -70 60 9 36 53 63 92 56 19 -3 41 -12
49 -19z m1402 -67 c0 -5 -6 -10 -14 -10 -8 0 -18 5 -21 10 -3 6 3 10 14 10 12
0 21 -4 21 -10z m-160 -628 c0 -12 -4 -12 -20 3 -11 10 -20 25 -20 33 0 12 4
12 20 -3 11 -10 20 -25 20 -33z m512 -14 c-9 -9 -12 -7 -12 12 0 19 3 21 12
12 9 -9 9 -15 0 -24z"/>
<path d="M3256 4325 c-13 -20 -16 -37 -11 -66 4 -21 10 -39 15 -39 7 0 21 120
15 128 -1 1 -10 -9 -19 -23z"/>
<path d="M3247 4163 c-10 -16 -12 -62 -3 -65 14 -5 30 52 18 64 -5 5 -12 6
-15 1z"/>
<path d="M2130 4061 c0 -5 7 -17 17 -26 13 -14 14 -18 2 -25 -20 -13 -6 -22
35 -23 42 -1 50 5 41 32 -10 32 -95 69 -95 42z"/>
<path d="M3511 4016 c-9 -11 -8 -15 5 -20 23 -9 38 8 21 23 -11 9 -17 8 -26
-3z"/>
<path d="M3130 3425 c7 -8 17 -12 22 -9 6 4 5 10 -3 15 -22 14 -33 10 -19 -6z"/>
<path d="M2708 2489 c-6 -42 1 -69 18 -69 11 0 13 10 8 43 -9 55 -20 67 -26
26z"/>
<path d="M707 1463 c-16 -16 -4 -33 31 -43 20 -5 114 -15 207 -21 94 -5 180
-11 192 -12 12 -1 23 3 23 8 2 15 -91 33 -205 41 -55 4 -117 13 -139 20 -41
15 -98 18 -109 7z"/>
<path d="M274 1006 c-18 -14 -18 -15 -1 -21 9 -4 24 -2 32 5 33 28 5 42 -31
16z"/>
<path d="M2660 972 c0 -4 9 -13 21 -20 16 -10 24 -10 35 -1 23 19 16 29 -21
29 -19 0 -35 -3 -35 -8z"/>
<path d="M2584 483 c-4 -21 -9 -42 -12 -48 -3 -5 -7 -77 -7 -160 -2 -111 -6
-163 -18 -198 -28 -80 -32 -77 104 -77 102 0 120 2 110 14 -14 16 -4 46 15 46
26 0 33 34 19 96 -29 127 -37 151 -68 209 -30 55 -35 60 -65 59 -18 -1 -32 3
-33 10 0 6 -1 27 -2 46 -3 52 -34 54 -43 3z"/>
<path d="M3800 64 c-22 -56 -16 -64 50 -64 33 0 60 4 60 9 0 18 -64 81 -82 81
-11 0 -23 -11 -28 -26z"/>
</g>
</svg>
