<?xml version="1.0" standalone="no"?>
<!DOCTYPE svg PUBLIC "-//W3C//DTD SVG 20010904//EN"
 "http://www.w3.org/TR/2001/REC-SVG-20010904/DTD/svg10.dtd">
<svg version="1.0" xmlns="http://www.w3.org/2000/svg"
 width="720.000000pt" height="720.000000pt" viewBox="0 0 720.000000 720.000000"
 preserveAspectRatio="xMidYMid meet">
<metadata>
Created by potrace 1.14, written by Peter Selinger 2001-2017
</metadata>
<g transform="translate(0.000000,720.000000) scale(0.100000,-0.100000)"
fill="#000000" stroke="none">
<path d="M1146 7118 c-29 -46 -68 -110 -86 -143 -70 -128 -155 -273 -198 -340
-46 -71 -173 -319 -187 -365 -4 -14 -27 -73 -51 -132 -74 -182 -80 -217 -128
-663 -9 -82 -20 -172 -26 -200 -34 -182 -47 -633 -21 -710 8 -22 18 -43 23
-46 4 -3 11 -84 14 -180 7 -207 16 -263 53 -321 l28 -43 -8 -230 c-4 -126 -13
-287 -18 -357 -6 -70 -8 -154 -5 -187 6 -55 5 -62 -20 -92 -15 -17 -38 -54
-52 -80 -13 -27 -30 -49 -37 -49 -40 0 -136 -117 -189 -230 -31 -65 -124 -209
-170 -264 -68 -80 -63 29 -66 -1288 l-2 -1198 2292 1 c1261 0 2316 4 2343 9
28 4 44 8 36 9 -11 1 -11 4 -1 16 10 12 10 15 0 15 -8 0 -6 7 6 17 23 21 84
134 84 156 0 8 6 20 14 26 8 7 15 20 15 29 0 9 3 41 7 70 6 44 10 52 28 52 16
1 11 6 -19 22 -22 11 -42 24 -45 29 -3 4 -18 11 -34 15 -16 4 -23 10 -17 14 8
4 5 15 -9 32 -11 15 -20 31 -20 37 0 6 -6 11 -14 11 -8 0 -17 15 -20 34 -7 37
-32 92 -46 101 -4 3 -6 -4 -3 -15 3 -11 0 -20 -6 -20 -6 0 -11 5 -11 10 0 6
-7 10 -16 10 -9 0 -14 6 -11 13 2 6 10 11 16 9 25 -5 9 17 -19 27 -17 5 -30
17 -30 26 0 10 5 13 13 9 8 -5 8 -3 -2 9 -7 9 -17 15 -21 12 -5 -3 -11 -1 -15
5 -3 5 2 10 12 10 15 0 16 2 3 10 -8 5 -25 10 -37 10 -22 0 -40 31 -28 50 3 5
-2 10 -12 10 -14 0 -15 2 -5 9 11 7 10 10 -3 15 -9 3 -28 6 -41 6 -38 0 -32
36 7 44 27 5 30 8 19 21 -14 17 -14 17 15 34 19 11 18 12 -7 8 -31 -5 -44 23
-27 56 6 10 9 28 6 38 -4 16 1 21 24 26 27 5 42 23 19 23 -19 0 -10 18 11 23
12 3 18 10 14 16 -8 14 20 25 42 17 15 -6 15 -8 3 -17 -11 -8 -8 -9 10 -3 14
3 33 15 43 25 10 11 22 19 27 19 6 0 10 7 10 15 0 19 46 31 63 16 10 -8 17 -7
26 2 10 9 15 8 25 -5 7 -10 20 -18 29 -18 8 0 18 8 20 18 4 16 5 16 6 0 1 -24
16 -23 33 3 13 20 15 20 30 5 15 -15 18 -14 37 10 12 15 28 24 39 22 22 -3 52
18 52 37 0 7 18 35 40 61 22 27 40 52 40 55 0 11 29 73 47 99 10 15 11 20 3
12 -8 -6 -18 -12 -22 -12 -12 0 -10 59 2 73 41 49 120 203 120 235 0 11 11 27
24 35 32 21 129 264 130 325 1 23 6 46 12 50 15 10 26 59 15 66 -5 4 -11 0
-14 -6 -2 -7 -7 -10 -11 -7 -10 9 5 40 15 33 6 -3 17 0 25 7 11 9 18 8 34 -6
24 -21 80 -14 160 22 70 32 133 45 164 33 14 -5 30 -25 40 -49 18 -47 22 -165
6 -206 -11 -29 -3 -56 11 -34 6 10 17 11 46 3 38 -9 38 -9 35 -54 -4 -45 -4
-45 17 -26 11 10 18 22 15 27 -3 5 0 35 7 66 14 69 5 173 -16 173 -7 0 -16 8
-19 18 -4 14 -5 14 -4 -3 0 -11 0 -33 -1 -50 -2 -30 -2 -30 -14 -7 -7 12 -16
19 -20 16 -4 -4 -7 10 -7 32 0 21 -11 63 -25 92 -28 61 -119 162 -146 162 -10
0 -21 5 -25 12 -5 8 5 9 37 3 24 -4 64 -8 89 -9 53 -1 92 -21 140 -71 32 -33
38 -35 75 -30 83 13 124 45 74 58 -12 3 -18 10 -15 15 3 5 -1 15 -10 22 -8 8
-12 20 -9 29 13 31 14 51 3 57 -7 4 -6 9 1 14 7 4 13 18 13 31 2 26 25 59 42
59 7 0 54 31 106 68 64 46 96 76 98 90 2 13 19 33 38 45 26 17 46 45 80 116
43 89 46 106 22 106 -6 0 -16 15 -22 33 -6 18 -18 37 -25 41 -19 12 -4 31 23
31 32 0 50 -25 49 -66 -1 -19 0 -34 2 -34 2 0 30 49 64 108 33 60 90 156 126
213 75 118 73 101 36 284 -12 61 -36 178 -52 260 -34 171 -81 340 -110 402
-26 54 -68 90 -160 137 -41 21 -81 44 -89 51 -8 8 -28 17 -45 21 -16 4 -39 13
-50 20 -19 13 -19 14 -1 14 11 0 42 -11 70 -24 28 -13 69 -30 91 -37 22 -8 46
-20 54 -27 24 -23 23 -5 -3 37 -14 22 -26 43 -26 45 0 3 -18 32 -40 65 -37 56
-52 111 -31 111 13 0 67 -70 75 -97 8 -25 83 -89 93 -79 11 11 13 34 12 261 0
296 -5 474 -12 481 -3 4 -13 4 -21 1 -12 -5 -14 -16 -10 -51 5 -37 3 -47 -9
-52 -13 -5 -14 -10 -6 -27 15 -28 4 -124 -16 -147 -9 -10 -14 -23 -11 -28 7
-12 -9 -68 -18 -62 -5 3 -10 28 -12 55 -2 28 -4 55 -4 60 -2 14 10 87 17 105
3 8 7 42 8 75 1 32 7 61 12 62 7 3 7 21 1 51 -5 26 -6 85 -2 132 11 138 9 241
-5 310 -7 36 -14 79 -15 97 -2 17 -8 38 -14 45 -6 8 -12 33 -13 56 -2 23 -6
42 -10 42 -4 0 -10 17 -13 38 -9 51 -121 340 -137 352 -3 3 -12 23 -20 45 -7
22 -17 44 -21 49 -4 6 -8 24 -8 41 0 17 -8 46 -18 65 -10 19 -27 59 -38 88
-10 30 -27 58 -36 63 -10 5 -18 21 -18 34 0 14 -4 33 -9 43 -11 22 -24 52 -60
137 l-29 70 -2361 3 -2361 2 -54 -82z m5162 -1195 c16 -30 24 -170 11 -178 -6
-4 -15 -2 -19 5 -12 20 -31 155 -24 173 8 22 21 22 32 0z m-1163 -1123 c3 -5
-1 -10 -10 -10 -9 0 -13 5 -10 10 3 6 8 10 10 10 2 0 7 -4 10 -10z m920 -40
c13 -6 15 -9 5 -9 -8 0 -22 4 -30 9 -18 12 -2 12 25 0z m-348 -62 c-3 -8 -6
-5 -6 6 -1 11 2 17 5 13 3 -3 4 -12 1 -19z m-1773 -359 c33 -26 29 -34 -10
-18 -42 17 -114 11 -146 -12 -36 -25 -36 -6 -2 26 36 33 118 35 158 4z m2564
-91 c14 -14 16 -48 4 -48 -5 0 -19 11 -31 24 -17 18 -19 25 -9 29 20 8 23 8
36 -5z m-703 -139 c-4 -10 -3 -19 2 -19 4 0 7 -20 5 -45 -2 -25 -8 -45 -14
-45 -5 0 -8 12 -7 28 2 15 1 32 -3 37 -9 15 3 76 14 69 5 -3 6 -14 3 -25z m-5
-145 c0 -8 -5 -12 -10 -9 -6 4 -8 11 -5 16 9 14 15 11 15 -7z m-756 -23 c4 -5
-3 -7 -14 -4 -23 6 -26 13 -6 13 8 0 17 -4 20 -9z m-1099 -61 c8 -13 -5 -13
-25 0 -13 8 -13 10 2 10 9 0 20 -4 23 -10z m-3099 -22 c12 -40 5 -118 -17
-165 -12 -26 -39 -138 -62 -250 -25 -128 -44 -203 -52 -203 -32 0 -36 49 -29
347 l7 293 73 0 c66 0 73 -2 80 -22z m4851 -13 c9 -25 -4 -29 -17 -6 -7 15 -7
21 0 21 6 0 13 -7 17 -15z m244 -95 c14 0 40 -65 36 -89 -5 -32 -14 -34 -20
-4 -8 39 -41 73 -67 66 -11 -3 -20 -2 -20 2 0 14 35 35 48 30 8 -3 18 -5 23
-5z m673 -35 c17 -25 21 -55 9 -55 -12 1 -52 68 -45 74 10 11 20 6 36 -19z
m-2229 -119 c16 -12 12 -13 -38 -13 -55 0 -76 11 -39 20 34 9 58 7 77 -7z
m1435 -337 c6 -24 13 -57 16 -73 2 -16 11 -37 20 -47 17 -18 32 -99 19 -99
-12 0 -34 33 -35 51 0 8 -11 39 -25 67 -19 39 -25 68 -25 114 1 69 11 64 30
-13z m322 -106 c18 -17 26 -83 9 -83 -5 0 -14 14 -20 30 -6 19 -22 35 -41 43
-17 8 -27 16 -23 20 12 13 56 7 75 -10z m-199 -219 c20 -22 34 -26 88 -29 60
-2 153 -22 119 -24 -13 -1 -13 -2 0 -11 11 -7 4 -18 -35 -54 -78 -71 -113 -70
-160 4 -22 35 -54 113 -55 133 0 15 20 6 43 -19z m-1083 -252 c0 -44 -9 -82
-19 -82 -12 0 -30 70 -24 88 19 52 43 49 43 -6z m-72 -75 c2 -10 -3 -17 -12
-17 -9 0 -16 -4 -16 -9 0 -5 -5 -22 -11 -38 l-12 -28 -7 25 c-3 14 -3 32 1 40
4 8 10 23 13 33 7 23 39 19 44 -6z m376 -713 c21 -8 20 -20 0 -28 -19 -7 -47
12 -38 25 6 11 16 11 38 3z m-5031 -137 c-5 -7 -8 -19 -9 -27 -4 -56 -4 -56
-20 -28 -13 25 -13 30 2 53 9 14 20 22 25 19 5 -3 6 -11 2 -17z m4192 -214
c-5 -10 -9 -20 -10 -23 0 -3 -8 -18 -17 -35 -11 -18 -17 -24 -18 -14 0 18 24
80 36 92 12 11 17 0 9 -20z m-45 -483 c0 -5 -4 -10 -10 -10 -5 0 -10 5 -10 10
0 6 5 10 10 10 6 0 10 -4 10 -10z"/>
<path d="M5529 2311 c-11 -38 -51 -91 -68 -91 -5 0 -11 -7 -15 -15 -4 -11 2
-14 24 -11 32 4 41 -9 12 -18 -20 -7 -48 -46 -32 -46 18 0 90 72 90 90 0 28
11 51 21 44 5 -3 5 5 0 18 -5 14 -5 31 0 40 6 11 4 18 -6 22 -10 4 -18 -6 -26
-33z m1 -101 c0 -5 -4 -10 -10 -10 -5 0 -10 5 -10 10 0 6 5 10 10 10 6 0 10
-4 10 -10z"/>
<path d="M5741 2054 c-12 -27 -11 -28 4 -12 10 9 16 21 13 28 -2 7 -10 -1 -17
-16z"/>
<path d="M5445 1760 c3 -5 12 -7 20 -3 21 7 19 13 -6 13 -11 0 -18 -4 -14 -10z"/>
<path d="M5394 1729 c-21 -12 -52 -33 -69 -48 -16 -15 -62 -49 -102 -75 -94
-63 -103 -82 -101 -225 0 -61 2 -111 4 -111 1 0 9 13 17 30 10 20 11 30 4 33
-13 4 29 67 44 67 5 0 14 -10 19 -22 5 -14 9 -17 10 -8 3 53 65 63 73 12 4
-26 4 -26 12 -4 5 15 15 22 32 22 15 0 23 5 20 13 -2 6 -11 11 -18 10 -9 -2
-15 6 -16 17 -2 17 1 18 17 10 25 -13 37 -13 22 2 -17 17 3 47 28 41 16 -4 19
-2 14 11 -5 12 0 16 20 16 19 0 26 5 26 20 0 11 7 23 15 26 8 4 15 12 15 20 0
8 7 14 14 14 16 0 66 60 66 79 0 14 -101 13 -111 -1 -3 -5 -16 -10 -27 -11
-12 -1 -22 -7 -22 -14 0 -7 -5 -13 -11 -13 -6 0 -8 7 -5 16 3 9 6 19 6 24 0 4
9 6 20 3 16 -4 19 -2 14 11 -3 9 -1 23 6 31 21 25 7 26 -36 4z m146 -53 c0
-11 -19 -15 -25 -6 -3 5 1 10 9 10 9 0 16 -2 16 -4z"/>
<path d="M5147 1723 c-4 -3 -7 -11 -7 -17 0 -6 5 -5 12 2 6 6 9 14 7 17 -3 3
-9 2 -12 -2z"/>
<path d="M5110 1244 c0 -8 5 -12 10 -9 6 3 10 10 10 16 0 5 -4 9 -10 9 -5 0
-10 -7 -10 -16z"/>
<path d="M4620 1210 c0 -5 9 -10 20 -10 11 0 20 5 20 10 0 6 -9 10 -20 10 -11
0 -20 -4 -20 -10z"/>
<path d="M5000 1195 c-36 -8 -93 -14 -127 -14 -35 -1 -63 -5 -63 -10 0 -15
-32 -22 -47 -10 -17 15 -28 5 -19 -16 3 -9 11 -13 16 -10 7 4 9 -2 7 -17 -2
-12 -2 -17 0 -10 3 6 8 12 12 12 8 0 41 -70 41 -88 0 -6 14 -21 31 -33 26 -18
35 -20 55 -10 35 15 64 14 85 -5 14 -13 29 -15 68 -9 56 8 60 25 5 25 -19 0
-34 5 -34 11 0 6 9 8 20 4 11 -3 25 -1 32 5 52 44 67 60 58 65 -5 3 -41 5 -80
4 -39 -1 -72 0 -75 3 -2 2 -6 15 -7 28 -3 20 6 28 49 50 29 14 53 28 53 33 0
8 2 9 -80 -8z"/>
</g>
</svg>
